<svg version="1.1" id="Layer_1" xmlns="http://www.w3.org/2000/svg" xmlns:xlink="http://www.w3.org/1999/xlink" x="0px" y="0px"
	 width="100%" viewBox="0 0 1080 1080" enable-background="new 0 0 1080 1080" xml:space="preserve">
<path fill="#000000" opacity="1.000000" stroke="none" 
	d="
M682.000000,1081.000000 
	C454.692841,1081.000000 227.885681,1081.000000 1.039263,1081.000000 
	C1.039263,721.067749 1.039263,361.135437 1.039263,1.101576 
	C360.890717,1.101576 720.781494,1.101576 1080.836182,1.101576 
	C1080.836182,360.999939 1080.836182,720.999939 1080.836182,1081.000000 
	C948.135010,1081.000000 815.317505,1081.000000 682.000000,1081.000000 
M238.996567,547.587524 
	C242.634598,564.687622 245.538086,581.985718 250.083206,598.841248 
	C256.858337,623.966553 267.813446,647.461304 280.549988,670.148560 
	C292.834137,692.030029 307.432434,712.268127 324.362885,730.684204 
	C345.892090,754.102661 369.830688,774.815552 397.060150,791.513672 
	C415.992859,803.123962 435.752930,813.044556 456.496277,821.013306 
	C475.639648,828.367432 495.216766,834.286560 515.447754,837.598633 
	C529.679443,839.928589 544.053528,842.388428 558.410767,842.711182 
	C578.412720,843.160889 598.504150,842.281982 618.468933,840.789612 
	C631.650146,839.804321 644.833984,837.431396 657.740417,834.474304 
	C689.715515,827.148315 719.867065,814.952515 748.488525,798.886841 
	C770.358398,786.610840 790.572632,771.990967 809.082092,755.200500 
	C825.279175,740.507568 840.324707,724.560242 853.414917,706.962585 
	C870.912598,683.439514 885.200012,658.096375 896.597656,631.024536 
	C909.615906,600.103271 918.519653,567.931946 920.468994,534.684143 
	C922.035583,507.966064 922.808044,480.930145 919.148865,454.067993 
	C916.440552,434.186920 912.323425,414.719452 906.298950,395.605621 
	C899.062927,372.648010 889.283997,350.831482 877.438049,329.902679 
	C864.503723,307.051056 849.245544,285.819702 831.108276,266.906952 
	C819.213013,254.503113 806.208679,243.106720 793.188477,231.852142 
	C777.361084,218.171005 759.735535,206.957581 741.300171,197.127655 
	C714.426697,182.798462 686.215637,171.774857 656.415527,165.334106 
	C642.017212,162.222168 627.366821,158.609711 612.782288,158.387039 
	C585.763123,157.974503 558.646667,156.168076 531.635925,159.919113 
	C512.440918,162.584747 493.602417,166.605804 475.151428,172.440002 
	C452.101288,179.728470 430.113586,189.480728 409.074982,201.388245 
	C386.058990,214.414917 364.767822,229.877182 345.618225,248.056961 
	C334.693634,258.428314 324.579346,269.703400 314.616791,281.026093 
	C299.915497,297.734406 287.685242,316.261414 277.124298,335.806091 
	C261.698730,364.353455 250.048721,394.420898 243.506195,426.254028 
	C240.670059,440.053314 237.961685,454.061859 237.274994,468.077271 
	C236.232361,489.357452 236.883163,510.727570 237.092087,532.056824 
	C237.139908,536.939392 238.317963,541.810974 238.996567,547.587524 
z"/>
<path fill="#5166A8" opacity="1.000000" stroke="none" 
	d="
M238.986206,547.137573 
	C238.317963,541.810974 237.139908,536.939392 237.092087,532.056824 
	C236.883163,510.727570 236.232361,489.357452 237.274994,468.077271 
	C237.961685,454.061859 240.670059,440.053314 243.506195,426.254028 
	C250.048721,394.420898 261.698730,364.353455 277.124298,335.806091 
	C287.685242,316.261414 299.915497,297.734406 314.616791,281.026093 
	C324.579346,269.703400 334.693634,258.428314 345.618225,248.056961 
	C364.767822,229.877182 386.058990,214.414917 409.074982,201.388245 
	C430.113586,189.480728 452.101288,179.728470 475.151428,172.440002 
	C493.602417,166.605804 512.440918,162.584747 531.635925,159.919113 
	C558.646667,156.168076 585.763123,157.974503 612.782288,158.387039 
	C627.366821,158.609711 642.017212,162.222168 656.415527,165.334106 
	C686.215637,171.774857 714.426697,182.798462 741.300171,197.127655 
	C759.735535,206.957581 777.361084,218.171005 793.188477,231.852142 
	C806.208679,243.106720 819.213013,254.503113 831.108276,266.906952 
	C849.245544,285.819702 864.503723,307.051056 877.438049,329.902679 
	C889.283997,350.831482 899.062927,372.648010 906.298950,395.605621 
	C912.323425,414.719452 916.440552,434.186920 919.148865,454.067993 
	C922.808044,480.930145 922.035583,507.966064 920.468994,534.684143 
	C918.519653,567.931946 909.615906,600.103271 896.597656,631.024536 
	C885.200012,658.096375 870.912598,683.439514 853.414917,706.962585 
	C840.324707,724.560242 825.279175,740.507568 809.082092,755.200500 
	C790.572632,771.990967 770.358398,786.610840 748.488525,798.886841 
	C719.867065,814.952515 689.715515,827.148315 657.740417,834.474304 
	C644.833984,837.431396 631.650146,839.804321 618.468933,840.789612 
	C598.504150,842.281982 578.412720,843.160889 558.410767,842.711182 
	C544.053528,842.388428 529.679443,839.928589 515.447754,837.598633 
	C495.216766,834.286560 475.639648,828.367432 456.496277,821.013306 
	C435.752930,813.044556 415.992859,803.123962 397.060150,791.513672 
	C369.830688,774.815552 345.892090,754.102661 324.362885,730.684204 
	C307.432434,712.268127 292.834137,692.030029 280.549988,670.148560 
	C267.813446,647.461304 256.858337,623.966553 250.083206,598.841248 
	C245.538086,581.985718 242.634598,564.687622 238.986206,547.137573 
M462.383484,638.042847 
	C465.606964,645.346008 468.885864,652.625427 472.031281,659.962097 
	C473.696930,663.847168 476.053925,665.840881 480.575317,664.564392 
	C483.602905,663.709534 486.775940,663.244995 489.916290,662.943909 
	C494.477875,662.506592 495.981232,660.033875 495.203125,655.809326 
	C493.273529,645.332947 491.338531,634.857300 489.348114,624.392395 
	C487.298340,613.615601 484.913849,602.895203 483.148895,592.073059 
	C479.671936,570.753479 476.790405,549.334351 473.129578,528.048096 
	C471.148163,516.526855 470.652527,516.612122 459.092224,518.505310 
	C453.191071,519.471741 452.410767,520.477905 453.448700,526.444397 
	C454.501831,532.498596 455.812042,538.508362 456.842804,544.565979 
	C460.055389,563.446167 463.194275,582.338928 466.344849,601.229553 
	C466.656891,603.100708 466.852448,604.991394 467.102081,606.872986 
	C466.695801,606.994995 466.289520,607.117004 465.883240,607.239075 
	C462.592621,599.692322 459.289673,592.151001 456.013855,584.597778 
	C448.132843,566.426270 440.205994,548.274231 432.435974,530.055298 
	C430.691376,525.964600 428.362030,524.532593 423.887817,525.849182 
	C419.758148,527.064453 415.386902,527.460327 411.120789,528.209839 
	C404.896393,529.303345 404.307159,529.930420 405.416290,536.044861 
	C408.532318,553.223206 411.852448,570.364502 414.961884,587.544006 
	C419.588226,613.104614 424.052856,638.694519 428.692291,664.252686 
	C430.313721,673.184875 432.135834,674.191284 440.981995,671.818237 
	C441.624939,671.645752 442.242096,671.364441 442.891113,671.229248 
	C447.331421,670.303955 448.928497,667.417175 448.343536,663.162415 
	C447.890381,659.866516 447.319397,656.583069 446.685028,653.316528 
	C441.521057,626.726379 436.317719,600.143799 431.196381,573.545471 
	C431.013153,572.593811 431.558289,571.501892 431.763977,570.475342 
	C434.727509,574.477417 436.786682,578.579407 438.616272,582.781433 
	C446.520813,600.934937 454.358093,619.117859 462.383484,638.042847 
M543.571594,503.700226 
	C545.875916,503.340851 548.184509,503.006805 550.483765,502.617493 
	C558.415710,501.274384 559.331116,500.546173 558.268799,492.581573 
	C556.489685,479.242737 554.116211,465.983917 552.067505,452.679932 
	C551.189697,446.979523 550.499023,441.250305 549.657959,435.052887 
	C556.613831,433.942352 562.931641,432.933716 569.728699,431.848541 
	C572.494873,448.590271 575.672729,464.691406 577.702209,480.936005 
	C580.002869,499.350006 579.109253,497.757507 594.159302,495.372528 
	C599.720459,494.491302 600.579407,493.200043 599.790100,487.642853 
	C597.520752,471.664124 595.385254,455.664581 592.926208,439.714966 
	C588.903931,413.626129 585.053894,387.500397 580.357910,361.530060 
	C578.023499,348.619843 578.905518,348.336914 564.497864,349.951172 
	C557.365845,350.750244 556.941223,351.381195 558.057861,358.509583 
	C560.558899,374.474976 562.994080,390.453186 565.772522,406.370941 
	C566.537598,410.754150 565.387939,412.483032 561.002380,412.747437 
	C557.525757,412.957062 554.039062,413.575226 550.641724,414.373230 
	C546.839111,415.266357 545.457642,413.469147 544.974487,410.136108 
	C542.689758,394.374176 540.406921,378.611938 538.076477,362.856750 
	C537.027405,355.763977 535.344055,354.597748 528.226318,355.756805 
	C526.254028,356.077942 524.288696,356.513458 522.302551,356.663330 
	C517.620178,357.016876 516.413086,359.724030 517.166565,363.880127 
	C517.849731,367.648499 518.645203,371.399841 519.210754,375.185699 
	C523.072998,401.039307 526.848389,426.905975 530.774597,452.749786 
	C531.194153,455.511963 532.836060,458.101379 533.172791,460.860992 
	C534.699463,473.373901 535.876587,485.929321 537.382690,498.445007 
	C537.728516,501.319336 538.917664,504.055908 543.571594,503.700226 
M612.085632,463.384064 
	C613.597168,473.009399 618.077209,481.115295 626.979004,485.142944 
	C639.113647,490.633362 651.494934,489.197845 662.853516,482.446472 
	C666.227539,480.441071 669.002563,476.857483 671.117004,473.421661 
	C675.593018,466.148346 675.909851,458.040894 674.385254,449.777466 
	C671.700745,435.227722 669.010925,420.678314 666.453979,406.105835 
	C664.069824,392.518311 662.284912,378.810730 659.451904,365.320740 
	C656.286560,350.247833 649.791260,338.897003 632.386597,338.548523 
	C621.721008,338.335022 611.493164,340.450287 603.653320,348.722290 
	C597.618164,355.090057 596.705322,363.152649 597.494751,371.147369 
	C598.662109,382.970795 600.722412,394.713348 602.613586,406.456360 
	C605.627563,425.171906 608.815247,443.859558 612.085632,463.384064 
M519.772095,481.555054 
	C519.577515,479.404694 519.536621,477.227386 519.165100,475.108032 
	C514.113770,446.290009 509.475677,417.388123 503.736542,388.706879 
	C500.878906,374.425903 494.297180,362.632751 475.716125,363.217896 
	C453.345825,363.922333 440.414520,373.083832 442.192261,395.594574 
	C443.190613,408.237061 445.641266,420.775177 447.661987,433.324158 
	C450.620148,451.694885 453.714722,470.044403 456.876648,488.381287 
	C458.909912,500.172546 465.122955,508.167633 477.107422,511.755035 
	C498.951569,518.293823 518.450439,505.121063 519.772095,481.555054 
M793.784058,315.043182 
	C790.348328,316.063934 790.464417,318.556152 790.894531,321.439789 
	C792.663391,333.297729 794.247437,345.183228 796.006592,357.042694 
	C798.151245,371.500854 800.354187,385.950806 802.625671,400.389557 
	C804.307495,411.079926 806.377258,421.714722 807.820190,432.435364 
	C808.774475,439.524963 805.756592,443.657379 799.874207,444.762268 
	C793.052307,446.043640 789.707214,444.014862 787.999573,436.152802 
	C785.885376,426.418488 784.440247,416.535004 782.832153,406.695343 
	C778.805237,382.054840 774.779785,357.413696 770.892151,332.750977 
	C768.707031,318.889038 768.830811,318.869507 755.179016,321.192139 
	C748.862061,322.266846 748.089417,323.419556 749.148865,329.919220 
	C754.934509,365.413910 760.761047,400.902100 766.461731,436.410492 
	C769.815918,457.302917 785.051086,467.892242 805.616577,463.403625 
	C821.790771,459.873444 831.362427,445.644440 828.522583,429.474030 
	C825.934998,414.739777 823.343750,400.005188 820.916565,385.244049 
	C817.407837,363.905457 814.063049,342.539948 810.612976,321.191650 
	C809.123169,311.973083 808.661560,311.684662 799.353027,313.580414 
	C797.726074,313.911713 796.128540,314.387543 793.784058,315.043182 
M735.434998,334.022583 
	C736.961731,324.808655 736.961365,324.806213 727.844299,326.143768 
	C726.856384,326.288696 725.875244,326.481079 724.891418,326.653656 
	C715.304565,328.335510 714.845337,328.865570 713.275085,338.409912 
	C710.553528,354.952515 707.766907,371.484467 704.974854,388.015381 
	C704.698975,389.648621 704.196777,391.243652 703.799561,392.856415 
	C702.111938,388.658081 701.604126,384.592041 700.911865,380.557648 
	C698.886719,368.755981 696.492859,357.009186 694.796570,345.161682 
	C692.884583,331.807770 693.027588,331.680878 679.679688,333.849060 
	C679.350952,333.902466 679.019531,333.939575 678.690552,333.991211 
	C673.219666,334.849365 672.234558,336.131409 673.112183,341.644806 
	C676.585388,363.465088 680.025757,385.291016 683.614868,407.092346 
	C686.964111,427.436554 690.518921,447.746826 693.918823,468.082794 
	C695.609314,478.193695 695.543823,478.201904 705.941833,477.702911 
	C706.604736,477.671082 707.271973,477.733765 707.937256,477.746033 
	C713.908020,477.856140 716.912109,474.516083 715.823914,468.581451 
	C713.393433,455.326660 710.742493,442.112305 708.305847,428.858612 
	C707.059692,422.080780 706.081604,415.253693 704.982422,408.448853 
	C705.389648,408.304535 705.796814,408.160217 706.203979,408.015900 
	C708.325195,411.880768 710.471008,415.732330 712.563171,419.612823 
	C721.092041,435.432129 729.587219,451.269653 738.141846,467.075012 
	C739.398926,469.397522 740.565552,471.840729 744.142883,471.134796 
	C747.887756,470.395752 751.722351,470.118896 755.511536,469.594971 
	C761.793762,468.726257 762.487488,467.478058 759.248230,462.016846 
	C752.476196,450.599792 745.398254,439.361633 738.760681,427.868225 
	C733.545288,418.837402 728.772156,409.549683 723.895203,400.327118 
	C723.400513,399.391663 723.240540,398.061279 723.437683,397.010223 
	C727.324219,376.278412 731.286682,355.560791 735.434998,334.022583 
M716.993835,603.554932 
	C720.299866,609.708069 723.421387,615.972778 727.033264,621.940796 
	C728.013977,623.561279 730.461487,625.210022 732.258423,625.235229 
	C736.371216,625.293091 740.506836,624.417175 744.616821,623.809692 
	C750.108215,622.997925 750.774292,621.491943 747.952576,616.636902 
	C739.718750,602.470337 731.450195,588.323792 723.277710,574.121826 
	C719.383972,567.355347 713.653931,560.817505 712.447937,553.562378 
	C711.210632,546.118774 714.350708,537.902161 715.803955,530.066345 
	C718.650146,514.719055 721.606201,499.391510 724.630066,484.078186 
	C725.364563,480.358826 724.194824,479.082703 720.491211,479.799774 
	C717.551636,480.368927 714.566101,480.698303 711.605286,481.161713 
	C704.427795,482.285034 703.452026,483.127228 702.167908,490.437927 
	C699.961792,502.998413 697.912231,515.586365 695.776489,528.159241 
	C694.656860,534.750488 693.493774,541.334351 692.350281,547.921509 
	C691.028259,546.648804 690.727112,545.529297 690.540344,544.390991 
	C687.713745,527.162048 684.833862,509.941284 682.132874,492.692535 
	C681.421753,488.151367 679.277954,486.191620 674.675598,487.035858 
	C671.892822,487.546295 669.091492,487.984589 666.281799,488.312256 
	C661.980286,488.813904 660.744263,491.241089 661.399475,495.276611 
	C664.991272,517.400330 668.439026,539.547668 672.086914,561.661987 
	C675.498047,582.340454 679.099854,602.987427 682.611755,623.649292 
	C684.184265,632.900818 684.177307,632.897888 693.665222,632.038086 
	C694.490906,631.963257 695.326538,631.952454 696.156067,631.973389 
	C702.460022,632.132568 705.296509,628.917236 704.137207,622.599365 
	C701.645447,609.019653 698.982544,595.471252 696.499329,581.890076 
	C695.392090,575.834595 694.549377,569.730713 693.586609,563.648804 
	C694.107117,563.499939 694.627625,563.351074 695.148132,563.202148 
	C702.324829,576.430725 709.501587,589.659302 716.993835,603.554932 
M755.083984,619.429626 
	C760.937683,622.590149 766.633606,619.965027 772.233459,618.599243 
	C773.182739,618.367615 773.905457,615.236633 773.910095,613.443054 
	C773.930298,605.627686 773.577087,597.812256 773.492310,589.995422 
	C773.400757,581.551514 773.462769,581.539673 781.511902,579.825012 
	C784.282043,579.234924 787.091125,578.813049 789.838745,578.136902 
	C792.591003,577.459778 794.063904,578.103455 794.859924,581.110718 
	C796.856018,588.651794 799.200623,596.100891 801.416199,603.583679 
	C804.128784,612.745117 805.484436,613.605652 814.794678,612.131470 
	C816.439453,611.870972 818.089355,611.642029 819.731506,611.366211 
	C823.407043,610.748657 824.317871,608.554810 823.291992,605.186707 
	C820.869751,597.233887 818.463806,589.276001 816.088623,581.309021 
	C809.956726,560.741028 803.875671,540.157898 797.715027,519.598633 
	C793.324097,504.945221 788.794373,490.333374 784.417969,475.675690 
	C783.032288,471.034607 780.336731,469.229736 775.458557,470.223999 
	C769.912170,471.354401 764.301819,472.246521 758.679871,472.906067 
	C754.470398,473.399963 752.629639,475.088593 752.682068,479.620941 
	C752.964600,504.048859 752.928833,528.480286 753.129700,552.909485 
	C753.200256,561.492188 753.687195,570.070679 753.884521,578.653381 
	C754.191528,592.004944 754.413452,605.358582 755.083984,619.429626 
M562.098083,640.627930 
	C563.046509,638.249329 564.534485,635.940491 564.852844,633.480347 
	C566.488831,620.836731 562.454285,609.618774 554.564270,600.043823 
	C544.408569,587.719604 533.399536,576.100220 523.183594,563.823181 
	C518.337646,557.999573 513.674377,551.746643 510.378693,544.981628 
	C506.393860,536.801880 511.332977,529.232910 519.978516,528.459595 
	C525.948486,527.925598 529.749146,531.706543 530.989868,539.413940 
	C532.222595,547.070984 532.364929,547.172791 539.871338,545.766479 
	C552.711121,543.360962 552.751526,543.350708 549.429260,530.333374 
	C546.578796,519.164734 539.741333,511.292542 528.273132,509.611481 
	C516.030762,507.816895 504.004669,509.600220 495.846649,520.458984 
	C486.318787,533.141052 487.953735,546.661865 495.566650,559.291931 
	C500.674530,567.766174 507.406982,575.302002 513.743225,582.984985 
	C522.423950,593.510742 531.740601,603.527527 540.102295,614.292480 
	C543.006714,618.031616 544.654114,623.215210 545.477417,627.980591 
	C546.435364,633.525208 543.503235,636.991699 538.807556,638.108887 
	C533.094788,639.468079 528.550171,637.651489 526.278320,632.606323 
	C525.138611,630.075378 524.573853,627.229614 524.099243,624.466064 
	C522.930847,617.662476 521.450806,616.524048 514.804932,617.779602 
	C512.191895,618.273254 509.587372,618.846619 506.953644,619.188904 
	C502.849884,619.722412 501.503082,622.235779 502.313141,625.890137 
	C503.210968,629.940308 504.340332,633.965698 505.721924,637.877197 
	C510.274078,650.764587 519.173584,657.519043 531.961792,658.036377 
	C547.221313,658.653687 555.552002,653.896057 562.098083,640.627930 
M609.473816,497.862915 
	C608.015869,497.728210 606.519104,497.309937 605.106079,497.503296 
	C592.609131,499.213654 580.113159,500.941254 567.645996,502.853851 
	C560.314026,503.978638 559.890198,504.730927 560.709167,512.191956 
	C560.890747,513.846436 561.069519,515.505432 561.356140,517.143677 
	C565.871460,542.952332 570.480408,568.744873 574.904907,594.569031 
	C577.658447,610.640320 580.247864,626.742065 582.671326,642.866089 
	C583.338623,647.305542 585.616272,649.237427 589.727905,648.538208 
	C603.345520,646.222595 616.936096,643.738464 630.503601,641.144043 
	C633.925415,640.489624 635.598206,638.200928 634.678223,634.503906 
	C634.316833,633.051575 634.081787,631.564148 633.854492,630.082703 
	C632.682556,622.444458 632.095337,621.992004 624.570068,623.173401 
	C617.044861,624.354919 609.523010,625.557800 601.241150,626.871582 
	C598.450378,611.001892 595.759033,595.697815 592.967041,579.821533 
	C599.667664,578.756653 605.700989,577.760071 611.747864,576.853088 
	C614.691772,576.411560 617.104614,575.301575 616.779053,571.900146 
	C616.431824,568.270691 615.884583,564.595947 614.808899,561.132080 
	C614.375916,559.737610 612.218384,557.804749 610.996460,557.907532 
	C604.266479,558.473938 597.583191,559.594238 590.072815,560.637207 
	C588.033691,547.864014 585.821777,534.008728 583.548218,519.767395 
	C592.127686,518.403015 599.869507,517.377747 607.503601,515.823242 
	C609.596558,515.397034 613.070618,513.259827 612.986816,512.123474 
	C612.644775,507.485840 611.169495,502.931732 609.473816,497.862915 
M410.390686,518.015442 
	C412.060760,523.859375 413.394714,524.657715 419.287323,522.992798 
	C421.179504,522.458191 422.912323,521.361206 424.803741,520.822021 
	C431.761139,518.838623 431.629425,518.915344 430.180054,511.718170 
	C427.774078,499.770752 425.368652,487.816467 423.339294,475.801544 
	C420.406982,458.440826 417.797852,441.025360 415.076080,423.629303 
	C413.579620,414.064667 412.134949,404.491882 410.595947,394.460052 
	C413.735138,393.887878 416.142731,393.359375 418.576721,393.019928 
	C433.931885,390.878540 430.961456,390.999237 429.568451,377.872986 
	C429.081116,373.280579 426.702148,372.376190 422.782471,373.050446 
	C416.879059,374.065918 410.946533,374.920807 405.059357,376.020477 
	C394.278992,378.034119 383.479767,379.988861 372.793610,382.428955 
	C370.730927,382.899933 368.057678,385.227142 367.610291,387.150360 
	C366.983765,389.843689 368.395782,392.950165 368.546967,395.899811 
	C368.774139,400.331238 370.867889,401.616150 375.068298,400.795410 
	C380.077881,399.816559 385.156158,399.189240 390.597870,398.348938 
	C391.097870,400.653717 391.598541,402.384003 391.833801,404.149689 
	C392.686462,410.548981 393.195557,417.004486 394.303040,423.357056 
	C396.285736,434.729889 398.776550,446.014496 400.736725,457.390808 
	C402.336639,466.676483 403.294006,476.072632 404.880463,485.360992 
	C405.843323,490.998444 407.731873,496.477417 408.702393,502.114075 
	C409.558929,507.088898 409.719208,512.183533 410.390686,518.015442 
M643.160889,621.725525 
	C643.617493,625.678040 643.975586,629.645081 644.554260,633.579651 
	C645.371277,639.134399 647.213867,640.354370 652.713989,639.144348 
	C654.608704,638.727539 656.453613,637.763062 658.342712,637.700623 
	C664.577942,637.494568 665.922119,636.019775 664.902649,629.721252 
	C663.786194,622.823425 662.454041,615.956421 661.505920,609.036194 
	C658.917664,590.144287 656.532715,571.224609 653.950256,552.331848 
	C653.305664,547.616455 652.141113,542.974609 651.350220,538.276306 
	C648.897461,523.704834 646.600830,509.105774 643.946594,494.571686 
	C643.697510,493.208069 641.294983,491.188995 639.988953,491.259644 
	C635.715759,491.490875 631.424377,492.303436 627.263489,493.372742 
	C624.495544,494.084106 623.030884,495.834137 623.704834,499.362183 
	C625.619446,509.383850 627.107727,519.488647 628.679199,529.573853 
	C631.512146,547.754700 634.256226,565.949524 637.090271,584.130249 
	C638.999329,596.376892 640.999023,608.609436 643.160889,621.725525 
M852.263794,606.909180 
	C852.946777,605.060486 854.419189,603.107666 854.191162,601.379150 
	C851.781250,583.109985 849.142456,564.870422 846.479553,546.635437 
	C844.612366,533.849060 842.680664,521.071167 840.650085,508.309753 
	C838.352051,493.867432 836.017578,479.428314 833.378296,465.046692 
	C833.094604,463.501007 830.825317,461.486786 829.215637,461.209717 
	C826.708618,460.778229 823.936035,461.455414 821.348633,462.004669 
	C812.675720,463.845764 812.234314,464.594055 813.619995,473.365143 
	C815.861084,487.550507 818.126465,501.732239 820.292175,515.929138 
	C821.870605,526.276611 823.200195,536.662598 824.833374,547.000977 
	C826.410706,556.985962 828.340759,566.915222 829.919312,576.900024 
	C831.385925,586.176941 832.542236,595.502441 833.938660,604.791016 
	C834.516663,608.635742 836.862915,610.143555 840.715454,609.340332 
	C844.325378,608.587708 847.954285,607.925903 852.263794,606.909180 
M383.437439,624.115479 
	C385.736206,638.569519 388.101196,653.013489 390.313660,667.480713 
	C392.228912,680.004333 392.454956,680.237488 404.591858,677.931030 
	C405.082428,677.837830 405.578949,677.775574 406.069061,677.680176 
	C411.355042,676.651428 412.791687,674.623840 411.812927,669.317993 
	C411.032990,665.089966 409.941895,660.913879 409.290588,656.668457 
	C405.584869,632.512817 402.044647,608.331604 398.293335,584.183167 
	C396.303009,571.370972 393.335815,558.675354 392.015015,545.803467 
	C390.542511,531.453430 389.682587,530.252258 375.727478,533.202332 
	C369.972015,534.419006 369.277039,535.656738 370.219421,541.496643 
	C374.616302,568.743408 378.930084,596.003662 383.437439,624.115479 
M802.017944,721.512512 
	C800.957031,716.018860 797.798157,712.596008 793.321289,712.089172 
	C789.360535,711.640747 784.651367,714.590271 783.033142,718.533020 
	C781.250732,722.875732 782.431458,727.157715 786.205322,730.036865 
	C792.258423,734.655090 799.961609,730.881592 802.017944,721.512512 
M391.434753,751.003113 
	C396.845734,750.067444 400.508698,746.439819 400.773895,741.754028 
	C401.003845,737.691162 397.399872,732.985046 393.172363,731.827881 
	C388.445129,730.533875 384.194916,732.367126 381.885681,736.696106 
	C378.611755,742.833618 382.682983,749.498596 391.434753,751.003113 
M819.001465,679.049316 
	C816.851501,680.207214 816.789001,680.280518 818.456177,681.701904 
	C820.989807,683.861938 823.620239,685.908386 826.209534,688.003113 
	C826.038269,688.420593 825.867065,688.838013 825.695862,689.255493 
	C820.164917,689.255493 814.633972,689.255493 809.103027,689.255493 
	C808.874573,689.784485 808.646057,690.313538 808.417542,690.842529 
	C813.273438,694.583557 818.129333,698.324524 822.985291,702.065491 
	C823.415649,701.578186 823.846008,701.090881 824.276367,700.603516 
	C821.284363,697.947266 818.292419,695.291077 815.300415,692.634827 
	C815.395142,692.121155 815.489868,691.607483 815.584595,691.093811 
	C821.119080,691.093811 826.653564,691.093811 832.187988,691.093811 
	C832.278564,690.528381 832.369080,689.962952 832.459595,689.397522 
	C828.158020,686.063904 823.856506,682.730286 819.001465,679.049316 
M273.539398,560.905762 
	C273.800079,565.344849 277.446930,560.751831 279.229584,564.070740 
	C283.319946,568.004028 275.465210,570.305359 275.361420,575.655457 
	C277.764435,573.631592 279.302551,572.336121 280.935211,570.960999 
	C284.393158,573.018555 287.907745,574.542480 291.231659,570.961914 
	C293.894928,568.092957 293.398834,562.237427 290.154999,557.128235 
	C284.873016,558.249084 279.550354,559.378479 273.539398,560.905762 
M766.725769,746.620605 
	C765.446167,744.168579 764.752380,740.389038 762.775635,739.516602 
	C757.134888,737.027039 753.973633,742.191528 749.621826,745.106995 
	C753.497437,750.276428 757.137085,755.131165 760.776733,759.985840 
	C761.241272,759.697327 761.705750,759.408875 762.170288,759.120361 
	C761.470825,757.481567 760.771423,755.842712 760.344421,754.842346 
	C762.738098,747.906738 768.201965,753.502686 772.173462,751.532043 
	C769.974487,749.945679 768.230957,748.687866 766.725769,746.620605 
M292.916260,381.977631 
	C295.225555,382.491486 297.701172,382.645355 299.799957,383.614899 
	C302.154755,384.702759 304.363647,387.937897 306.281647,387.672974 
	C308.640717,387.347137 310.908691,384.598846 312.692139,382.460632 
	C313.979279,380.917450 314.411285,378.661102 315.368073,376.381165 
	C309.444580,373.755859 303.935211,371.314087 298.425842,368.872284 
	C298.180634,369.346924 297.935455,369.821564 297.690247,370.296204 
	C299.111725,371.422699 300.533203,372.549164 301.847992,373.591064 
	C301.201660,377.127930 299.655182,379.266571 296.007294,379.558014 
	C294.893524,379.647034 293.858276,380.718414 292.916260,381.977631 
M420.974823,773.584778 
	C428.075897,777.351440 431.114258,775.999023 431.571045,768.425232 
	C430.732452,768.913208 429.955841,769.139221 429.520935,769.653931 
	C425.911407,773.925598 422.232086,773.499329 419.969666,768.513550 
	C418.422699,765.104370 419.328857,762.218689 422.198822,760.160522 
	C425.478668,757.808289 428.896454,758.314575 431.737823,761.025391 
	C432.792175,762.031311 433.184509,763.731140 433.878754,765.114502 
	C434.525513,764.459412 435.172302,763.804382 435.819061,763.149292 
	C434.798645,759.093079 431.665588,756.939026 427.678680,756.166687 
	C423.042389,755.268555 419.455017,757.320007 417.530884,761.604553 
	C415.530914,766.057678 416.403595,770.044617 420.974823,773.584778 
M565.104248,801.813599 
	C565.104248,806.734924 565.104248,811.656250 565.104248,816.660400 
	C569.670898,816.660400 573.778992,816.660400 577.887085,816.660400 
	C577.924988,816.243225 577.962830,815.826111 578.000732,815.408936 
	C575.705078,815.210083 573.326721,815.309448 571.143677,814.704102 
	C569.764160,814.321594 568.676331,812.887268 567.457642,811.924683 
	C568.727722,810.858521 569.844116,809.377869 571.308167,808.835205 
	C572.993469,808.210571 574.986145,808.415283 576.845337,808.259766 
	C576.824219,807.791382 576.803101,807.322937 576.781982,806.854553 
	C573.948059,806.491211 571.114075,806.127869 568.359436,805.774719 
	C567.895813,800.697449 567.895813,800.733887 572.396606,800.731506 
	C574.392029,800.730469 576.387329,800.548279 578.382690,800.448242 
	C578.387268,799.718323 578.391846,798.988342 578.396423,798.258423 
	C574.336243,798.258423 570.272705,798.186340 566.221008,798.372925 
	C565.827515,798.391052 565.507629,800.007751 565.104248,801.813599 
M612.299438,796.751953 
	C611.302673,796.819397 610.283081,797.056274 609.312988,796.925720 
	C604.323059,796.254150 603.359558,798.862000 603.974426,803.094299 
	C604.475891,806.546509 604.639893,810.047241 605.117676,813.503784 
	C605.241638,814.400452 605.980774,815.212158 606.437317,816.062866 
	C606.752686,815.978577 607.068115,815.894226 607.383545,815.809937 
	C607.561646,814.134460 607.739746,812.459045 607.858582,811.341248 
	C613.670593,806.210083 615.317322,814.948547 620.497253,814.862061 
	C618.782349,812.372986 617.596619,810.651917 616.487122,809.041565 
	C620.777283,802.475891 619.677795,798.817932 612.299438,796.751953 
M539.832458,805.365784 
	C540.214722,802.295349 540.597046,799.224854 540.979309,796.154419 
	C540.391113,796.046692 539.802979,795.938904 539.214783,795.831177 
	C538.536560,798.186340 537.858398,800.541504 537.100525,803.173340 
	C535.222961,802.926208 533.598267,802.747375 531.986084,802.490051 
	C530.400635,802.237000 528.828003,801.904114 527.130432,801.583679 
	C527.301086,798.633484 527.441040,796.213135 527.581055,793.792847 
	C526.902039,793.731812 526.223083,793.670776 525.544067,793.609741 
	C524.644409,799.608459 523.744751,805.607178 522.845093,811.605835 
	C523.473450,811.721802 524.101746,811.837708 524.730042,811.953674 
	C525.371765,809.484924 526.013489,807.016235 526.774597,804.088257 
	C530.301697,804.715149 533.605652,805.302368 536.773254,805.865356 
	C536.595276,809.083557 536.461914,811.494263 536.328552,813.904907 
	C536.884827,813.965454 537.441101,814.026001 537.997375,814.086487 
	C538.545715,811.459167 539.094116,808.831787 539.832458,805.365784 
M848.272522,660.166138 
	C844.968689,661.933167 841.722046,661.904541 839.297607,658.898926 
	C834.755676,653.268372 839.140503,649.421387 843.157898,645.331055 
	C837.212158,646.051270 834.038330,650.819824 835.014832,656.486755 
	C835.884277,661.532532 841.603210,665.139404 846.719238,663.868713 
	C851.260132,662.740845 855.489929,656.265015 854.226074,652.375610 
	C853.492981,650.119751 850.062561,648.689331 846.610962,649.646790 
	C851.453979,652.298767 853.970032,655.404968 848.272522,660.166138 
M274.472321,484.068359 
	C275.064819,485.524261 275.853699,486.935913 276.194763,488.448517 
	C276.537659,489.969482 276.434814,491.590973 276.527313,493.168396 
	C277.036804,493.171387 277.546295,493.174377 278.055786,493.177368 
	C278.477509,490.210297 278.899200,487.243225 279.337708,484.158020 
	C288.917419,483.969849 281.095123,492.470154 286.308990,495.443268 
	C286.617340,490.720551 286.889404,486.554169 287.174042,482.194763 
	C280.482391,481.765350 274.599182,481.387817 268.377258,480.988586 
	C268.377258,485.728455 268.377258,489.903046 268.377258,494.077667 
	C268.829865,494.102478 269.282501,494.127289 269.735107,494.152100 
	C269.901123,491.799896 269.720062,489.345917 270.368317,487.135132 
	C270.734680,485.885712 272.464508,485.036102 274.472321,484.068359 
M293.884705,409.686462 
	C291.361572,408.863831 288.865997,407.934448 286.301483,407.271881 
	C285.295746,407.011993 283.334442,407.040710 283.171173,407.463837 
	C281.734222,411.188477 280.604767,415.031769 279.384277,418.839935 
	C280.044739,419.022858 280.705200,419.205780 281.365662,419.388702 
	C281.954041,417.598969 282.548523,415.811249 283.129608,414.019165 
	C284.715790,409.127106 285.383636,408.916290 289.965302,411.991913 
	C289.322571,414.648895 288.668610,417.352173 288.014648,420.055420 
	C288.536499,420.215973 289.058350,420.376526 289.580200,420.537079 
	C290.681061,417.779724 291.781891,415.022369 292.978149,412.026062 
	C294.750122,412.621826 296.249512,413.125916 297.842041,413.661346 
	C296.997803,417.193481 296.220428,420.445740 295.443054,423.698029 
	C296.047882,423.849396 296.652679,424.000793 297.257477,424.152191 
	C298.518646,420.222198 299.779785,416.292236 301.174011,411.947540 
	C298.698578,411.173431 296.674774,410.540588 293.884705,409.686462 
M461.970215,791.339111 
	C459.874512,790.428833 457.778809,789.518616 455.363861,788.469727 
	C456.202850,786.457214 456.870331,784.856140 457.532898,783.266785 
	C460.734985,784.271057 463.502563,785.139099 466.270172,786.007141 
	C466.455109,785.524475 466.640015,785.041809 466.824951,784.559082 
	C464.259552,783.289795 461.694153,782.020508 458.753143,780.565369 
	C459.435608,778.901978 460.026917,777.460754 460.713531,775.787170 
	C464.231781,776.993042 467.403259,778.080017 470.574707,779.166992 
	C470.763031,778.561462 470.951355,777.955994 471.139709,777.350464 
	C467.355804,775.709229 463.571930,774.068054 459.360901,772.241577 
	C456.743988,778.442383 454.407776,783.978149 451.984802,789.719421 
	C456.518463,791.578796 460.395813,793.169006 464.273163,794.759216 
	C464.495636,794.341553 464.718109,793.923828 464.940613,793.506165 
	C464.161896,792.895752 463.383209,792.285339 461.970215,791.339111 
M695.858765,785.260681 
	C697.349670,785.165955 698.875122,784.834900 700.321289,785.046387 
	C701.633667,785.238220 702.859619,786.020813 704.123657,786.542908 
	C703.267334,787.805176 702.678833,789.662903 701.494385,790.195862 
	C699.517761,791.085144 697.159912,791.126831 694.857239,791.544495 
	C697.169922,794.373230 701.697388,794.309204 704.896851,791.010864 
	C706.164612,789.704041 707.061279,787.079224 706.657166,785.410339 
	C706.330566,784.061340 703.922852,782.830872 702.208313,782.320862 
	C700.743591,781.885193 698.904724,782.866760 697.319092,782.631042 
	C695.901611,782.420410 694.604004,781.403076 693.253479,780.741638 
	C694.217102,779.548523 694.966553,778.005066 696.198975,777.251526 
	C697.719238,776.322144 699.641357,776.049988 701.389771,775.493835 
	C701.237732,774.910400 701.085693,774.327026 700.933594,773.743591 
	C698.480713,774.398315 695.735168,774.581604 693.671265,775.862976 
	C692.130981,776.819092 690.430786,779.379333 690.699341,780.887268 
	C690.994385,782.543396 693.464111,783.812134 695.858765,785.260681 
M305.529938,637.163086 
	C307.374756,639.962952 309.219604,642.762817 311.214752,645.790771 
	C308.367859,647.609985 306.136444,649.035889 303.218811,650.900269 
	C308.456055,651.468750 319.406219,645.704956 320.800537,641.830750 
	C318.076965,642.952759 315.756073,643.908875 313.126465,644.992188 
	C311.550446,641.794861 310.107269,638.867004 308.663788,635.938660 
	C311.076416,634.241272 313.156799,632.777649 315.237213,631.314026 
	C314.918701,630.823730 314.600189,630.333435 314.281677,629.843140 
	C308.797363,632.628174 303.313080,635.413269 297.828766,638.198303 
	C298.083374,638.780334 298.337982,639.362366 298.592590,639.944397 
	C300.668610,639.072693 302.744659,638.200989 305.529938,637.163086 
M280.525757,530.991211 
	C282.253967,529.996948 284.195160,529.231445 285.616791,527.907959 
	C286.285919,527.284912 286.341522,524.650024 286.022583,524.519348 
	C280.234863,522.147766 274.347626,520.019043 268.481567,517.838562 
	C268.105652,518.211304 267.729736,518.584106 267.353790,518.956848 
	C276.277374,524.096191 274.308136,530.174255 269.766785,536.699951 
	C273.136475,534.911621 276.506165,533.123230 280.525757,530.991211 
M291.005554,449.919189 
	C290.157532,446.503479 288.087982,444.259674 284.596283,445.808319 
	C282.756287,446.624420 281.787933,449.260498 280.214478,450.867676 
	C278.910400,452.199768 277.296356,453.228363 275.819641,454.391418 
	C275.505768,452.440765 274.836609,450.462524 274.985199,448.547760 
	C275.114777,446.878143 276.166412,445.280121 276.810608,443.650452 
	C272.123566,445.988342 271.274017,449.882416 272.338867,454.050201 
	C272.698486,455.457642 274.700745,457.153320 276.154755,457.372223 
	C277.581909,457.587067 279.596893,456.420227 280.747650,455.259003 
	C281.970215,454.025299 282.265442,451.915833 283.374573,450.511871 
	C284.159729,449.517944 285.625031,449.061340 286.786713,448.364838 
	C287.363556,449.758667 288.433014,451.165222 288.397339,452.543182 
	C288.348450,454.429230 287.459869,456.293518 286.931213,458.167114 
	C287.570435,458.351135 288.209656,458.535187 288.848877,458.719208 
	C289.586670,456.055389 290.324493,453.391571 291.005554,449.919189 
M297.644043,595.291687 
	C290.230988,593.977661 285.406830,596.722900 284.427887,602.812439 
	C283.672516,607.510864 286.537292,612.024292 291.060150,612.471680 
	C288.034210,608.596191 284.853088,604.621765 288.679260,600.188171 
	C290.040863,598.610352 293.089050,597.486389 295.183746,597.730591 
	C301.505005,598.467468 300.950958,604.118591 301.530914,609.037048 
	C305.281006,604.422485 304.064117,600.017090 297.644043,595.291687 
M492.284485,784.859619 
	C491.375244,784.859619 490.466034,784.859619 489.556793,784.859619 
	C489.509064,785.219666 489.461334,785.579773 489.413605,785.939819 
	C491.227905,786.848083 493.042206,787.756409 494.821411,788.647095 
	C493.491852,793.928711 492.235077,798.921143 490.978302,803.913574 
	C491.692688,804.091248 492.407104,804.268982 493.121521,804.446716 
	C494.735596,799.404968 496.349670,794.363220 497.940308,789.394653 
	C500.207397,789.737671 502.090149,790.022522 503.972931,790.307373 
	C504.090485,789.723633 504.208008,789.139893 504.325562,788.556213 
	C500.547119,787.364441 496.768677,786.172668 492.284485,784.859619 
M733.617676,776.839722 
	C733.676636,775.510193 734.214539,773.951599 733.708008,772.892639 
	C731.940369,769.197449 729.811646,765.675110 727.798157,762.047424 
	C729.634155,760.593445 731.163513,759.382263 732.692810,758.171082 
	C732.361694,757.683533 732.030640,757.195923 731.699524,756.708374 
	C727.350159,759.167114 723.000732,761.625793 718.651367,764.084534 
	C718.896362,764.595886 719.141418,765.107300 719.386414,765.618652 
	C721.264771,764.984802 723.143127,764.351013 725.179443,763.663879 
	C727.853394,768.110657 730.400879,772.347046 733.617676,776.839722 
M367.986847,707.501831 
	C366.669220,706.252930 365.351624,705.004028 364.034027,703.755127 
	C363.636108,704.117188 363.238159,704.479309 362.840210,704.841431 
	C363.936218,706.467163 365.032257,708.092896 366.229279,709.868408 
	C362.520386,713.850525 358.916199,717.720215 355.312012,721.589966 
	C355.829041,722.065918 356.346039,722.541931 356.863068,723.017883 
	C360.761902,719.404419 364.660767,715.791016 368.508423,712.225037 
	C370.348358,713.559631 371.927856,714.705383 373.507355,715.851135 
	C373.857086,715.451111 374.206818,715.051147 374.556549,714.651184 
	C372.533264,712.439270 370.509949,710.227356 367.986847,707.501831 
z"/>
<path fill="#EEEBE3" opacity="1.000000" stroke="none" 
	d="
M462.301666,637.666443 
	C454.358093,619.117859 446.520813,600.934937 438.616272,582.781433 
	C436.786682,578.579407 434.727509,574.477417 431.763977,570.475342 
	C431.558289,571.501892 431.013153,572.593811 431.196381,573.545471 
	C436.317719,600.143799 441.521057,626.726379 446.685028,653.316528 
	C447.319397,656.583069 447.890381,659.866516 448.343536,663.162415 
	C448.928497,667.417175 447.331421,670.303955 442.891113,671.229248 
	C442.242096,671.364441 441.624939,671.645752 440.981995,671.818237 
	C432.135834,674.191284 430.313721,673.184875 428.692291,664.252686 
	C424.052856,638.694519 419.588226,613.104614 414.961884,587.544006 
	C411.852448,570.364502 408.532318,553.223206 405.416290,536.044861 
	C404.307159,529.930420 404.896393,529.303345 411.120789,528.209839 
	C415.386902,527.460327 419.758148,527.064453 423.887817,525.849182 
	C428.362030,524.532593 430.691376,525.964600 432.435974,530.055298 
	C440.205994,548.274231 448.132843,566.426270 456.013855,584.597778 
	C459.289673,592.151001 462.592621,599.692322 465.883240,607.239075 
	C466.289520,607.117004 466.695801,606.994995 467.102081,606.872986 
	C466.852448,604.991394 466.656891,603.100708 466.344849,601.229553 
	C463.194275,582.338928 460.055389,563.446167 456.842804,544.565979 
	C455.812042,538.508362 454.501831,532.498596 453.448700,526.444397 
	C452.410767,520.477905 453.191071,519.471741 459.092224,518.505310 
	C470.652527,516.612122 471.148163,516.526855 473.129578,528.048096 
	C476.790405,549.334351 479.671936,570.753479 483.148895,592.073059 
	C484.913849,602.895203 487.298340,613.615601 489.348114,624.392395 
	C491.338531,634.857300 493.273529,645.332947 495.203125,655.809326 
	C495.981232,660.033875 494.477875,662.506592 489.916290,662.943909 
	C486.775940,663.244995 483.602905,663.709534 480.575317,664.564392 
	C476.053925,665.840881 473.696930,663.847168 472.031281,659.962097 
	C468.885864,652.625427 465.606964,645.346008 462.301666,637.666443 
M467.445007,609.576599 
	C467.445007,609.576599 467.538239,609.398987 467.538239,609.398987 
	C467.538239,609.398987 467.347748,609.429810 467.445007,609.576599 
z"/>
<path fill="#EEEBE3" opacity="1.000000" stroke="none" 
	d="
M543.161621,503.719452 
	C538.917664,504.055908 537.728516,501.319336 537.382690,498.445007 
	C535.876587,485.929321 534.699463,473.373901 533.172791,460.860992 
	C532.836060,458.101379 531.194153,455.511963 530.774597,452.749786 
	C526.848389,426.905975 523.072998,401.039307 519.210754,375.185699 
	C518.645203,371.399841 517.849731,367.648499 517.166565,363.880127 
	C516.413086,359.724030 517.620178,357.016876 522.302551,356.663330 
	C524.288696,356.513458 526.254028,356.077942 528.226318,355.756805 
	C535.344055,354.597748 537.027405,355.763977 538.076477,362.856750 
	C540.406921,378.611938 542.689758,394.374176 544.974487,410.136108 
	C545.457642,413.469147 546.839111,415.266357 550.641724,414.373230 
	C554.039062,413.575226 557.525757,412.957062 561.002380,412.747437 
	C565.387939,412.483032 566.537598,410.754150 565.772522,406.370941 
	C562.994080,390.453186 560.558899,374.474976 558.057861,358.509583 
	C556.941223,351.381195 557.365845,350.750244 564.497864,349.951172 
	C578.905518,348.336914 578.023499,348.619843 580.357910,361.530060 
	C585.053894,387.500397 588.903931,413.626129 592.926208,439.714966 
	C595.385254,455.664581 597.520752,471.664124 599.790100,487.642853 
	C600.579407,493.200043 599.720459,494.491302 594.159302,495.372528 
	C579.109253,497.757507 580.002869,499.350006 577.702209,480.936005 
	C575.672729,464.691406 572.494873,448.590271 569.728699,431.848541 
	C562.931641,432.933716 556.613831,433.942352 549.657959,435.052887 
	C550.499023,441.250305 551.189697,446.979523 552.067505,452.679932 
	C554.116211,465.983917 556.489685,479.242737 558.268799,492.581573 
	C559.331116,500.546173 558.415710,501.274384 550.483765,502.617493 
	C548.184509,503.006805 545.875916,503.340851 543.161621,503.719452 
z"/>
<path fill="#EFEBE3" opacity="1.000000" stroke="none" 
	d="
M612.007568,462.971558 
	C608.815247,443.859558 605.627563,425.171906 602.613586,406.456360 
	C600.722412,394.713348 598.662109,382.970795 597.494751,371.147369 
	C596.705322,363.152649 597.618164,355.090057 603.653320,348.722290 
	C611.493164,340.450287 621.721008,338.335022 632.386597,338.548523 
	C649.791260,338.897003 656.286560,350.247833 659.451904,365.320740 
	C662.284912,378.810730 664.069824,392.518311 666.453979,406.105835 
	C669.010925,420.678314 671.700745,435.227722 674.385254,449.777466 
	C675.909851,458.040894 675.593018,466.148346 671.117004,473.421661 
	C669.002563,476.857483 666.227539,480.441071 662.853516,482.446472 
	C651.494934,489.197845 639.113647,490.633362 626.979004,485.142944 
	C618.077209,481.115295 613.597168,473.009399 612.007568,462.971558 
M634.672791,464.522705 
	C638.087646,469.148346 643.515137,470.469513 649.235779,468.067535 
	C653.592468,466.238220 655.213745,462.871857 654.173767,456.858521 
	C649.038025,427.162689 643.832642,397.478882 638.601562,367.799683 
	C638.286621,366.012726 637.606812,364.276611 636.975342,362.561554 
	C635.310669,358.040314 632.249817,355.928528 627.299805,356.971191 
	C621.434204,358.206635 617.777954,361.434418 617.980286,366.325287 
	C618.222351,372.177063 618.809265,378.065582 619.872437,383.822632 
	C622.832092,399.850250 624.696777,416.059937 628.188293,432.001740 
	C630.497986,442.547546 632.282593,453.208374 634.672791,464.522705 
z"/>
<path fill="#EFEBE3" opacity="1.000000" stroke="none" 
	d="
M519.763489,482.011780 
	C518.450439,505.121063 498.951569,518.293823 477.107422,511.755035 
	C465.122955,508.167633 458.909912,500.172546 456.876648,488.381287 
	C453.714722,470.044403 450.620148,451.694885 447.661987,433.324158 
	C445.641266,420.775177 443.190613,408.237061 442.192261,395.594574 
	C440.414520,373.083832 453.345825,363.922333 475.716125,363.217896 
	C494.297180,362.632751 500.878906,374.425903 503.736542,388.706879 
	C509.475677,417.388123 514.113770,446.290009 519.165100,475.108032 
	C519.536621,477.227386 519.577515,479.404694 519.763489,482.011780 
M469.983643,441.425049 
	C470.372467,446.580566 471.427338,451.544525 472.742523,456.592651 
	C475.250885,466.220551 476.498993,476.172394 478.400635,485.964447 
	C479.517548,491.715668 482.339508,493.873840 488.129242,493.818817 
	C496.415588,493.740082 500.178009,489.220093 498.707581,480.864410 
	C494.699646,458.088928 490.643982,435.321777 486.554352,412.560822 
	C485.085419,404.385437 483.698578,396.183105 481.821594,388.098145 
	C480.804260,383.716064 478.058807,380.695801 472.809814,381.455994 
	C466.733673,382.336029 462.574890,385.765839 462.656647,391.075806 
	C462.744263,396.768768 463.556580,402.478638 464.417358,408.125549 
	C466.071350,418.975952 467.982849,429.787048 469.983643,441.425049 
z"/>
<path fill="#EEEBE3" opacity="1.000000" stroke="none" 
	d="
M794.150757,314.919922 
	C796.128540,314.387543 797.726074,313.911713 799.353027,313.580414 
	C808.661560,311.684662 809.123169,311.973083 810.612976,321.191650 
	C814.063049,342.539948 817.407837,363.905457 820.916565,385.244049 
	C823.343750,400.005188 825.934998,414.739777 828.522583,429.474030 
	C831.362427,445.644440 821.790771,459.873444 805.616577,463.403625 
	C785.051086,467.892242 769.815918,457.302917 766.461731,436.410492 
	C760.761047,400.902100 754.934509,365.413910 749.148865,329.919220 
	C748.089417,323.419556 748.862061,322.266846 755.179016,321.192139 
	C768.830811,318.869507 768.707031,318.889038 770.892151,332.750977 
	C774.779785,357.413696 778.805237,382.054840 782.832153,406.695343 
	C784.440247,416.535004 785.885376,426.418488 787.999573,436.152802 
	C789.707214,444.014862 793.052307,446.043640 799.874207,444.762268 
	C805.756592,443.657379 808.774475,439.524963 807.820190,432.435364 
	C806.377258,421.714722 804.307495,411.079926 802.625671,400.389557 
	C800.354187,385.950806 798.151245,371.500854 796.006592,357.042694 
	C794.247437,345.183228 792.663391,333.297729 790.894531,321.439789 
	C790.464417,318.556152 790.348328,316.063934 794.150757,314.919922 
z"/>
<path fill="#EEEBE3" opacity="1.000000" stroke="none" 
	d="
M735.334351,334.431427 
	C731.286682,355.560791 727.324219,376.278412 723.437683,397.010223 
	C723.240540,398.061279 723.400513,399.391663 723.895203,400.327118 
	C728.772156,409.549683 733.545288,418.837402 738.760681,427.868225 
	C745.398254,439.361633 752.476196,450.599792 759.248230,462.016846 
	C762.487488,467.478058 761.793762,468.726257 755.511536,469.594971 
	C751.722351,470.118896 747.887756,470.395752 744.142883,471.134796 
	C740.565552,471.840729 739.398926,469.397522 738.141846,467.075012 
	C729.587219,451.269653 721.092041,435.432129 712.563171,419.612823 
	C710.471008,415.732330 708.325195,411.880768 706.203979,408.015900 
	C705.796814,408.160217 705.389648,408.304535 704.982422,408.448853 
	C706.081604,415.253693 707.059692,422.080780 708.305847,428.858612 
	C710.742493,442.112305 713.393433,455.326660 715.823914,468.581451 
	C716.912109,474.516083 713.908020,477.856140 707.937256,477.746033 
	C707.271973,477.733765 706.604736,477.671082 705.941833,477.702911 
	C695.543823,478.201904 695.609314,478.193695 693.918823,468.082794 
	C690.518921,447.746826 686.964111,427.436554 683.614868,407.092346 
	C680.025757,385.291016 676.585388,363.465088 673.112183,341.644806 
	C672.234558,336.131409 673.219666,334.849365 678.690552,333.991211 
	C679.019531,333.939575 679.350952,333.902466 679.679688,333.849060 
	C693.027588,331.680878 692.884583,331.807770 694.796570,345.161682 
	C696.492859,357.009186 698.886719,368.755981 700.911865,380.557648 
	C701.604126,384.592041 702.111938,388.658081 703.799561,392.856415 
	C704.196777,391.243652 704.698975,389.648621 704.974854,388.015381 
	C707.766907,371.484467 710.553528,354.952515 713.275085,338.409912 
	C714.845337,328.865570 715.304565,328.335510 724.891418,326.653656 
	C725.875244,326.481079 726.856384,326.288696 727.844299,326.143768 
	C736.961365,324.806213 736.961731,324.808655 735.334351,334.431427 
z"/>
<path fill="#EFEBE3" opacity="1.000000" stroke="none" 
	d="
M716.836060,603.221436 
	C709.501587,589.659302 702.324829,576.430725 695.148132,563.202148 
	C694.627625,563.351074 694.107117,563.499939 693.586609,563.648804 
	C694.549377,569.730713 695.392090,575.834595 696.499329,581.890076 
	C698.982544,595.471252 701.645447,609.019653 704.137207,622.599365 
	C705.296509,628.917236 702.460022,632.132568 696.156067,631.973389 
	C695.326538,631.952454 694.490906,631.963257 693.665222,632.038086 
	C684.177307,632.897888 684.184265,632.900818 682.611755,623.649292 
	C679.099854,602.987427 675.498047,582.340454 672.086914,561.661987 
	C668.439026,539.547668 664.991272,517.400330 661.399475,495.276611 
	C660.744263,491.241089 661.980286,488.813904 666.281799,488.312256 
	C669.091492,487.984589 671.892822,487.546295 674.675598,487.035858 
	C679.277954,486.191620 681.421753,488.151367 682.132874,492.692535 
	C684.833862,509.941284 687.713745,527.162048 690.540344,544.390991 
	C690.727112,545.529297 691.028259,546.648804 692.350281,547.921509 
	C693.493774,541.334351 694.656860,534.750488 695.776489,528.159241 
	C697.912231,515.586365 699.961792,502.998413 702.167908,490.437927 
	C703.452026,483.127228 704.427795,482.285034 711.605286,481.161713 
	C714.566101,480.698303 717.551636,480.368927 720.491211,479.799774 
	C724.194824,479.082703 725.364563,480.358826 724.630066,484.078186 
	C721.606201,499.391510 718.650146,514.719055 715.803955,530.066345 
	C714.350708,537.902161 711.210632,546.118774 712.447937,553.562378 
	C713.653931,560.817505 719.383972,567.355347 723.277710,574.121826 
	C731.450195,588.323792 739.718750,602.470337 747.952576,616.636902 
	C750.774292,621.491943 750.108215,622.997925 744.616821,623.809692 
	C740.506836,624.417175 736.371216,625.293091 732.258423,625.235229 
	C730.461487,625.210022 728.013977,623.561279 727.033264,621.940796 
	C723.421387,615.972778 720.299866,609.708069 716.836060,603.221436 
M693.531311,561.760437 
	C693.531311,561.760437 693.624634,561.555908 693.624634,561.555908 
	C693.624634,561.555908 693.414124,561.601868 693.531311,561.760437 
z"/>
<path fill="#EEEBE3" opacity="1.000000" stroke="none" 
	d="
M754.877686,619.070435 
	C754.413452,605.358582 754.191528,592.004944 753.884521,578.653381 
	C753.687195,570.070679 753.200256,561.492188 753.129700,552.909485 
	C752.928833,528.480286 752.964600,504.048859 752.682068,479.620941 
	C752.629639,475.088593 754.470398,473.399963 758.679871,472.906067 
	C764.301819,472.246521 769.912170,471.354401 775.458557,470.223999 
	C780.336731,469.229736 783.032288,471.034607 784.417969,475.675690 
	C788.794373,490.333374 793.324097,504.945221 797.715027,519.598633 
	C803.875671,540.157898 809.956726,560.741028 816.088623,581.309021 
	C818.463806,589.276001 820.869751,597.233887 823.291992,605.186707 
	C824.317871,608.554810 823.407043,610.748657 819.731506,611.366211 
	C818.089355,611.642029 816.439453,611.870972 814.794678,612.131470 
	C805.484436,613.605652 804.128784,612.745117 801.416199,603.583679 
	C799.200623,596.100891 796.856018,588.651794 794.859924,581.110718 
	C794.063904,578.103455 792.591003,577.459778 789.838745,578.136902 
	C787.091125,578.813049 784.282043,579.234924 781.511902,579.825012 
	C773.462769,581.539673 773.400757,581.551514 773.492310,589.995422 
	C773.577087,597.812256 773.930298,605.627686 773.910095,613.443054 
	C773.905457,615.236633 773.182739,618.367615 772.233459,618.599243 
	C766.633606,619.965027 760.937683,622.590149 754.877686,619.070435 
M781.862854,533.616089 
	C779.023865,523.316040 776.184875,513.015991 773.345886,502.715973 
	C772.730286,502.816986 772.114746,502.917999 771.499146,503.018982 
	C772.011902,522.437317 772.524719,541.855652 773.054199,561.907104 
	C778.894836,560.855347 783.858093,559.961609 789.333557,558.975586 
	C786.748840,550.295959 784.383972,542.354492 781.862854,533.616089 
z"/>
<path fill="#EEEBE3" opacity="1.000000" stroke="none" 
	d="
M561.809082,640.891846 
	C555.552002,653.896057 547.221313,658.653687 531.961792,658.036377 
	C519.173584,657.519043 510.274078,650.764587 505.721924,637.877197 
	C504.340332,633.965698 503.210968,629.940308 502.313141,625.890137 
	C501.503082,622.235779 502.849884,619.722412 506.953644,619.188904 
	C509.587372,618.846619 512.191895,618.273254 514.804932,617.779602 
	C521.450806,616.524048 522.930847,617.662476 524.099243,624.466064 
	C524.573853,627.229614 525.138611,630.075378 526.278320,632.606323 
	C528.550171,637.651489 533.094788,639.468079 538.807556,638.108887 
	C543.503235,636.991699 546.435364,633.525208 545.477417,627.980591 
	C544.654114,623.215210 543.006714,618.031616 540.102295,614.292480 
	C531.740601,603.527527 522.423950,593.510742 513.743225,582.984985 
	C507.406982,575.302002 500.674530,567.766174 495.566650,559.291931 
	C487.953735,546.661865 486.318787,533.141052 495.846649,520.458984 
	C504.004669,509.600220 516.030762,507.816895 528.273132,509.611481 
	C539.741333,511.292542 546.578796,519.164734 549.429260,530.333374 
	C552.751526,543.350708 552.711121,543.360962 539.871338,545.766479 
	C532.364929,547.172791 532.222595,547.070984 530.989868,539.413940 
	C529.749146,531.706543 525.948486,527.925598 519.978516,528.459595 
	C511.332977,529.232910 506.393860,536.801880 510.378693,544.981628 
	C513.674377,551.746643 518.337646,557.999573 523.183594,563.823181 
	C533.399536,576.100220 544.408569,587.719604 554.564270,600.043823 
	C562.454285,609.618774 566.488831,620.836731 564.852844,633.480347 
	C564.534485,635.940491 563.046509,638.249329 561.809082,640.891846 
z"/>
<path fill="#EFEBE3" opacity="1.000000" stroke="none" 
	d="
M609.792786,498.104889 
	C611.169495,502.931732 612.644775,507.485840 612.986816,512.123474 
	C613.070618,513.259827 609.596558,515.397034 607.503601,515.823242 
	C599.869507,517.377747 592.127686,518.403015 583.548218,519.767395 
	C585.821777,534.008728 588.033691,547.864014 590.072815,560.637207 
	C597.583191,559.594238 604.266479,558.473938 610.996460,557.907532 
	C612.218384,557.804749 614.375916,559.737610 614.808899,561.132080 
	C615.884583,564.595947 616.431824,568.270691 616.779053,571.900146 
	C617.104614,575.301575 614.691772,576.411560 611.747864,576.853088 
	C605.700989,577.760071 599.667664,578.756653 592.967041,579.821533 
	C595.759033,595.697815 598.450378,611.001892 601.241150,626.871582 
	C609.523010,625.557800 617.044861,624.354919 624.570068,623.173401 
	C632.095337,621.992004 632.682556,622.444458 633.854492,630.082703 
	C634.081787,631.564148 634.316833,633.051575 634.678223,634.503906 
	C635.598206,638.200928 633.925415,640.489624 630.503601,641.144043 
	C616.936096,643.738464 603.345520,646.222595 589.727905,648.538208 
	C585.616272,649.237427 583.338623,647.305542 582.671326,642.866089 
	C580.247864,626.742065 577.658447,610.640320 574.904907,594.569031 
	C570.480408,568.744873 565.871460,542.952332 561.356140,517.143677 
	C561.069519,515.505432 560.890747,513.846436 560.709167,512.191956 
	C559.890198,504.730927 560.314026,503.978638 567.645996,502.853851 
	C580.113159,500.941254 592.609131,499.213654 605.106079,497.503296 
	C606.519104,497.309937 608.015869,497.728210 609.792786,498.104889 
z"/>
<path fill="#EEEBE3" opacity="1.000000" stroke="none" 
	d="
M410.288788,517.620361 
	C409.719208,512.183533 409.558929,507.088898 408.702393,502.114075 
	C407.731873,496.477417 405.843323,490.998444 404.880463,485.360992 
	C403.294006,476.072632 402.336639,466.676483 400.736725,457.390808 
	C398.776550,446.014496 396.285736,434.729889 394.303040,423.357056 
	C393.195557,417.004486 392.686462,410.548981 391.833801,404.149689 
	C391.598541,402.384003 391.097870,400.653717 390.597870,398.348938 
	C385.156158,399.189240 380.077881,399.816559 375.068298,400.795410 
	C370.867889,401.616150 368.774139,400.331238 368.546967,395.899811 
	C368.395782,392.950165 366.983765,389.843689 367.610291,387.150360 
	C368.057678,385.227142 370.730927,382.899933 372.793610,382.428955 
	C383.479767,379.988861 394.278992,378.034119 405.059357,376.020477 
	C410.946533,374.920807 416.879059,374.065918 422.782471,373.050446 
	C426.702148,372.376190 429.081116,373.280579 429.568451,377.872986 
	C430.961456,390.999237 433.931885,390.878540 418.576721,393.019928 
	C416.142731,393.359375 413.735138,393.887878 410.595947,394.460052 
	C412.134949,404.491882 413.579620,414.064667 415.076080,423.629303 
	C417.797852,441.025360 420.406982,458.440826 423.339294,475.801544 
	C425.368652,487.816467 427.774078,499.770752 430.180054,511.718170 
	C431.629425,518.915344 431.761139,518.838623 424.803741,520.822021 
	C422.912323,521.361206 421.179504,522.458191 419.287323,522.992798 
	C413.394714,524.657715 412.060760,523.859375 410.288788,517.620361 
z"/>
<path fill="#EEEBE3" opacity="1.000000" stroke="none" 
	d="
M643.059570,621.286865 
	C640.999023,608.609436 638.999329,596.376892 637.090271,584.130249 
	C634.256226,565.949524 631.512146,547.754700 628.679199,529.573853 
	C627.107727,519.488647 625.619446,509.383850 623.704834,499.362183 
	C623.030884,495.834137 624.495544,494.084106 627.263489,493.372742 
	C631.424377,492.303436 635.715759,491.490875 639.988953,491.259644 
	C641.294983,491.188995 643.697510,493.208069 643.946594,494.571686 
	C646.600830,509.105774 648.897461,523.704834 651.350220,538.276306 
	C652.141113,542.974609 653.305664,547.616455 653.950256,552.331848 
	C656.532715,571.224609 658.917664,590.144287 661.505920,609.036194 
	C662.454041,615.956421 663.786194,622.823425 664.902649,629.721252 
	C665.922119,636.019775 664.577942,637.494568 658.342712,637.700623 
	C656.453613,637.763062 654.608704,638.727539 652.713989,639.144348 
	C647.213867,640.354370 645.371277,639.134399 644.554260,633.579651 
	C643.975586,629.645081 643.617493,625.678040 643.059570,621.286865 
z"/>
<path fill="#EEEBE3" opacity="1.000000" stroke="none" 
	d="
M851.919312,607.066650 
	C847.954285,607.925903 844.325378,608.587708 840.715454,609.340332 
	C836.862915,610.143555 834.516663,608.635742 833.938660,604.791016 
	C832.542236,595.502441 831.385925,586.176941 829.919312,576.900024 
	C828.340759,566.915222 826.410706,556.985962 824.833374,547.000977 
	C823.200195,536.662598 821.870605,526.276611 820.292175,515.929138 
	C818.126465,501.732239 815.861084,487.550507 813.619995,473.365143 
	C812.234314,464.594055 812.675720,463.845764 821.348633,462.004669 
	C823.936035,461.455414 826.708618,460.778229 829.215637,461.209717 
	C830.825317,461.486786 833.094604,463.501007 833.378296,465.046692 
	C836.017578,479.428314 838.352051,493.867432 840.650085,508.309753 
	C842.680664,521.071167 844.612366,533.849060 846.479553,546.635437 
	C849.142456,564.870422 851.781250,583.109985 854.191162,601.379150 
	C854.419189,603.107666 852.946777,605.060486 851.919312,607.066650 
z"/>
<path fill="#EFEBE3" opacity="1.000000" stroke="none" 
	d="
M383.355469,623.687256 
	C378.930084,596.003662 374.616302,568.743408 370.219421,541.496643 
	C369.277039,535.656738 369.972015,534.419006 375.727478,533.202332 
	C389.682587,530.252258 390.542511,531.453430 392.015015,545.803467 
	C393.335815,558.675354 396.303009,571.370972 398.293335,584.183167 
	C402.044647,608.331604 405.584869,632.512817 409.290588,656.668457 
	C409.941895,660.913879 411.032990,665.089966 411.812927,669.317993 
	C412.791687,674.623840 411.355042,676.651428 406.069061,677.680176 
	C405.578949,677.775574 405.082428,677.837830 404.591858,677.931030 
	C392.454956,680.237488 392.228912,680.004333 390.313660,667.480713 
	C388.101196,653.013489 385.736206,638.569519 383.355469,623.687256 
z"/>
<path fill="#DCDBDC" opacity="1.000000" stroke="none" 
	d="
M801.997192,721.911865 
	C799.961609,730.881592 792.258423,734.655090 786.205322,730.036865 
	C782.431458,727.157715 781.250732,722.875732 783.033142,718.533020 
	C784.651367,714.590271 789.360535,711.640747 793.321289,712.089172 
	C797.798157,712.596008 800.957031,716.018860 801.997192,721.911865 
M796.126709,727.827698 
	C798.985840,725.688965 800.175842,722.722107 798.665466,719.578430 
	C797.786926,717.749817 795.518799,715.390625 793.885071,715.397705 
	C791.293091,715.408936 787.807556,716.532166 786.390259,718.440430 
	C785.130676,720.136353 785.297424,723.991638 786.387268,726.085693 
	C788.213318,729.594177 791.871582,729.838013 796.126709,727.827698 
z"/>
<path fill="#DDDDDC" opacity="1.000000" stroke="none" 
	d="
M391.028625,751.001099 
	C382.682983,749.498596 378.611755,742.833618 381.885681,736.696106 
	C384.194916,732.367126 388.445129,730.533875 393.172363,731.827881 
	C397.399872,732.985046 401.003845,737.691162 400.773895,741.754028 
	C400.508698,746.439819 396.845734,750.067444 391.028625,751.001099 
M395.786102,746.423706 
	C398.403809,743.414734 399.092896,739.852234 396.274109,737.063416 
	C394.564575,735.372192 391.339905,734.267090 388.916656,734.455078 
	C384.872009,734.768860 382.632141,739.687317 384.031677,743.639038 
	C385.569916,747.982422 389.855072,749.247253 395.786102,746.423706 
z"/>
<path fill="#E3E1DE" opacity="1.000000" stroke="none" 
	d="
M819.278198,679.222961 
	C823.856506,682.730286 828.158020,686.063904 832.459595,689.397522 
	C832.369080,689.962952 832.278564,690.528381 832.187988,691.093811 
	C826.653564,691.093811 821.119080,691.093811 815.584595,691.093811 
	C815.489868,691.607483 815.395142,692.121155 815.300415,692.634827 
	C818.292419,695.291077 821.284363,697.947266 824.276367,700.603516 
	C823.846008,701.090881 823.415649,701.578186 822.985291,702.065491 
	C818.129333,698.324524 813.273438,694.583557 808.417542,690.842529 
	C808.646057,690.313538 808.874573,689.784485 809.103027,689.255493 
	C814.633972,689.255493 820.164917,689.255493 825.695862,689.255493 
	C825.867065,688.838013 826.038269,688.420593 826.209534,688.003113 
	C823.620239,685.908386 820.989807,683.861938 818.456177,681.701904 
	C816.789001,680.280518 816.851501,680.207214 819.278198,679.222961 
z"/>
<path fill="#DEDDDD" opacity="1.000000" stroke="none" 
	d="
M273.883545,560.706848 
	C279.550354,559.378479 284.873016,558.249084 290.154999,557.128235 
	C293.398834,562.237427 293.894928,568.092957 291.231659,570.961914 
	C287.907745,574.542480 284.393158,573.018555 280.935211,570.960999 
	C279.302551,572.336121 277.764435,573.631592 275.361420,575.655457 
	C275.465210,570.305359 283.319946,568.004028 279.229584,564.070740 
	C277.446930,560.751831 273.800079,565.344849 273.883545,560.706848 
M290.404999,566.324341 
	C289.447632,558.969482 289.350586,558.923157 280.161072,562.488464 
	C282.005188,565.202454 283.536316,567.811462 285.549194,569.971680 
	C285.803162,570.244202 288.588928,568.157532 290.404999,566.324341 
z"/>
<path fill="#DEDDDD" opacity="1.000000" stroke="none" 
	d="
M766.606567,747.025391 
	C768.230957,748.687866 769.974487,749.945679 772.173462,751.532043 
	C768.201965,753.502686 762.738098,747.906738 760.344421,754.842346 
	C760.771423,755.842712 761.470825,757.481567 762.170288,759.120361 
	C761.705750,759.408875 761.241272,759.697327 760.776733,759.985840 
	C757.137085,755.131165 753.497437,750.276428 749.621826,745.106995 
	C753.973633,742.191528 757.134888,737.027039 762.775635,739.516602 
	C764.752380,740.389038 765.446167,744.168579 766.606567,747.025391 
M764.089355,745.262207 
	C761.627319,739.869934 759.283264,739.958801 753.250305,745.847900 
	C754.791931,747.895691 756.352051,749.968140 758.488037,752.805481 
	C760.622986,750.208313 762.328430,748.133606 764.089355,745.262207 
z"/>
<path fill="#DEDDDD" opacity="1.000000" stroke="none" 
	d="
M292.851654,381.658752 
	C293.858276,380.718414 294.893524,379.647034 296.007294,379.558014 
	C299.655182,379.266571 301.201660,377.127930 301.847992,373.591064 
	C300.533203,372.549164 299.111725,371.422699 297.690247,370.296204 
	C297.935455,369.821564 298.180634,369.346924 298.425842,368.872284 
	C303.935211,371.314087 309.444580,373.755859 315.368073,376.381165 
	C314.411285,378.661102 313.979279,380.917450 312.692139,382.460632 
	C310.908691,384.598846 308.640717,387.347137 306.281647,387.672974 
	C304.363647,387.937897 302.154755,384.702759 299.799957,383.614899 
	C297.701172,382.645355 295.225555,382.491486 292.851654,381.658752 
M307.113190,385.039368 
	C308.923248,382.892670 310.733307,380.746002 312.816376,378.275543 
	C310.653259,377.156342 309.522369,376.500092 308.333252,375.976044 
	C307.156647,375.457520 305.921234,375.072479 304.771973,374.651001 
	C300.692871,381.406494 301.044281,383.478699 307.113190,385.039368 
z"/>
<path fill="#DCDBDC" opacity="1.000000" stroke="none" 
	d="
M420.674072,773.366577 
	C416.403595,770.044617 415.530914,766.057678 417.530884,761.604553 
	C419.455017,757.320007 423.042389,755.268555 427.678680,756.166687 
	C431.665588,756.939026 434.798645,759.093079 435.819061,763.149292 
	C435.172302,763.804382 434.525513,764.459412 433.878754,765.114502 
	C433.184509,763.731140 432.792175,762.031311 431.737823,761.025391 
	C428.896454,758.314575 425.478668,757.808289 422.198822,760.160522 
	C419.328857,762.218689 418.422699,765.104370 419.969666,768.513550 
	C422.232086,773.499329 425.911407,773.925598 429.520935,769.653931 
	C429.955841,769.139221 430.732452,768.913208 431.571045,768.425232 
	C431.114258,775.999023 428.075897,777.351440 420.674072,773.366577 
z"/>
<path fill="#D9D9DB" opacity="1.000000" stroke="none" 
	d="
M565.128906,801.348022 
	C565.507629,800.007751 565.827515,798.391052 566.221008,798.372925 
	C570.272705,798.186340 574.336243,798.258423 578.396423,798.258423 
	C578.391846,798.988342 578.387268,799.718323 578.382690,800.448242 
	C576.387329,800.548279 574.392029,800.730469 572.396606,800.731506 
	C567.895813,800.733887 567.895813,800.697449 568.359436,805.774719 
	C571.114075,806.127869 573.948059,806.491211 576.781982,806.854553 
	C576.803101,807.322937 576.824219,807.791382 576.845337,808.259766 
	C574.986145,808.415283 572.993469,808.210571 571.308167,808.835205 
	C569.844116,809.377869 568.727722,810.858521 567.457642,811.924683 
	C568.676331,812.887268 569.764160,814.321594 571.143677,814.704102 
	C573.326721,815.309448 575.705078,815.210083 578.000732,815.408936 
	C577.962830,815.826111 577.924988,816.243225 577.887085,816.660400 
	C573.778992,816.660400 569.670898,816.660400 565.104248,816.660400 
	C565.104248,811.656250 565.104248,806.734924 565.128906,801.348022 
z"/>
<path fill="#E3E1DE" opacity="1.000000" stroke="none" 
	d="
M612.686340,796.760559 
	C619.677795,798.817932 620.777283,802.475891 616.487122,809.041565 
	C617.596619,810.651917 618.782349,812.372986 620.497253,814.862061 
	C615.317322,814.948547 613.670593,806.210083 607.858582,811.341248 
	C607.739746,812.459045 607.561646,814.134460 607.383545,815.809937 
	C607.068115,815.894226 606.752686,815.978577 606.437317,816.062866 
	C605.980774,815.212158 605.241638,814.400452 605.117676,813.503784 
	C604.639893,810.047241 604.475891,806.546509 603.974426,803.094299 
	C603.359558,798.862000 604.323059,796.254150 609.312988,796.925720 
	C610.283081,797.056274 611.302673,796.819397 612.686340,796.760559 
M606.666138,800.029968 
	C606.801514,802.577942 606.936829,805.125916 607.158325,809.295654 
	C610.763794,807.531372 613.507324,806.474426 615.851257,804.843262 
	C616.445312,804.429810 616.123474,801.137024 615.611572,800.962769 
	C613.124329,800.116394 610.430054,799.876831 607.806519,799.437805 
	C607.661743,799.413635 607.493591,799.528748 606.666138,800.029968 
z"/>
<path fill="#DEDDDD" opacity="1.000000" stroke="none" 
	d="
M539.737427,805.785156 
	C539.094116,808.831787 538.545715,811.459167 537.997375,814.086487 
	C537.441101,814.026001 536.884827,813.965454 536.328552,813.904907 
	C536.461914,811.494263 536.595276,809.083557 536.773254,805.865356 
	C533.605652,805.302368 530.301697,804.715149 526.774597,804.088257 
	C526.013489,807.016235 525.371765,809.484924 524.730042,811.953674 
	C524.101746,811.837708 523.473450,811.721802 522.845093,811.605835 
	C523.744751,805.607178 524.644409,799.608459 525.544067,793.609741 
	C526.223083,793.670776 526.902039,793.731812 527.581055,793.792847 
	C527.441040,796.213135 527.301086,798.633484 527.130432,801.583679 
	C528.828003,801.904114 530.400635,802.237000 531.986084,802.490051 
	C533.598267,802.747375 535.222961,802.926208 537.100525,803.173340 
	C537.858398,800.541504 538.536560,798.186340 539.214783,795.831177 
	C539.802979,795.938904 540.391113,796.046692 540.979309,796.154419 
	C540.597046,799.224854 540.214722,802.295349 539.737427,805.785156 
z"/>
<path fill="#DDDDDC" opacity="1.000000" stroke="none" 
	d="
M848.605347,659.956970 
	C853.970032,655.404968 851.453979,652.298767 846.610962,649.646790 
	C850.062561,648.689331 853.492981,650.119751 854.226074,652.375610 
	C855.489929,656.265015 851.260132,662.740845 846.719238,663.868713 
	C841.603210,665.139404 835.884277,661.532532 835.014832,656.486755 
	C834.038330,650.819824 837.212158,646.051270 843.157898,645.331055 
	C839.140503,649.421387 834.755676,653.268372 839.297607,658.898926 
	C841.722046,661.904541 844.968689,661.933167 848.605347,659.956970 
z"/>
<path fill="#D9D9DB" opacity="1.000000" stroke="none" 
	d="
M274.026245,484.037384 
	C272.464508,485.036102 270.734680,485.885712 270.368317,487.135132 
	C269.720062,489.345917 269.901123,491.799896 269.735107,494.152100 
	C269.282501,494.127289 268.829865,494.102478 268.377258,494.077667 
	C268.377258,489.903046 268.377258,485.728455 268.377258,480.988586 
	C274.599182,481.387817 280.482391,481.765350 287.174042,482.194763 
	C286.889404,486.554169 286.617340,490.720551 286.308990,495.443268 
	C281.095123,492.470154 288.917419,483.969849 279.337708,484.158020 
	C278.899200,487.243225 278.477509,490.210297 278.055786,493.177368 
	C277.546295,493.174377 277.036804,493.171387 276.527313,493.168396 
	C276.434814,491.590973 276.537659,489.969482 276.194763,488.448517 
	C275.853699,486.935913 275.064819,485.524261 274.026245,484.037384 
z"/>
<path fill="#DCDBDC" opacity="1.000000" stroke="none" 
	d="
M294.267853,409.797119 
	C296.674774,410.540588 298.698578,411.173431 301.174011,411.947540 
	C299.779785,416.292236 298.518646,420.222198 297.257477,424.152191 
	C296.652679,424.000793 296.047882,423.849396 295.443054,423.698029 
	C296.220428,420.445740 296.997803,417.193481 297.842041,413.661346 
	C296.249512,413.125916 294.750122,412.621826 292.978149,412.026062 
	C291.781891,415.022369 290.681061,417.779724 289.580200,420.537079 
	C289.058350,420.376526 288.536499,420.215973 288.014648,420.055420 
	C288.668610,417.352173 289.322571,414.648895 289.965302,411.991913 
	C285.383636,408.916290 284.715790,409.127106 283.129608,414.019165 
	C282.548523,415.811249 281.954041,417.598969 281.365662,419.388702 
	C280.705200,419.205780 280.044739,419.022858 279.384277,418.839935 
	C280.604767,415.031769 281.734222,411.188477 283.171173,407.463837 
	C283.334442,407.040710 285.295746,407.011993 286.301483,407.271881 
	C288.865997,407.934448 291.361572,408.863831 294.267853,409.797119 
z"/>
<path fill="#DCDBDC" opacity="1.000000" stroke="none" 
	d="
M462.287354,791.507019 
	C463.383209,792.285339 464.161896,792.895752 464.940613,793.506165 
	C464.718109,793.923828 464.495636,794.341553 464.273163,794.759216 
	C460.395813,793.169006 456.518463,791.578796 451.984802,789.719421 
	C454.407776,783.978149 456.743988,778.442383 459.360901,772.241577 
	C463.571930,774.068054 467.355804,775.709229 471.139709,777.350464 
	C470.951355,777.955994 470.763031,778.561462 470.574707,779.166992 
	C467.403259,778.080017 464.231781,776.993042 460.713531,775.787170 
	C460.026917,777.460754 459.435608,778.901978 458.753143,780.565369 
	C461.694153,782.020508 464.259552,783.289795 466.824951,784.559082 
	C466.640015,785.041809 466.455109,785.524475 466.270172,786.007141 
	C463.502563,785.139099 460.734985,784.271057 457.532898,783.266785 
	C456.870331,784.856140 456.202850,786.457214 455.363861,788.469727 
	C457.778809,789.518616 459.874512,790.428833 462.287354,791.507019 
z"/>
<path fill="#D9D9DB" opacity="1.000000" stroke="none" 
	d="
M695.422485,785.255188 
	C693.464111,783.812134 690.994385,782.543396 690.699341,780.887268 
	C690.430786,779.379333 692.130981,776.819092 693.671265,775.862976 
	C695.735168,774.581604 698.480713,774.398315 700.933594,773.743591 
	C701.085693,774.327026 701.237732,774.910400 701.389771,775.493835 
	C699.641357,776.049988 697.719238,776.322144 696.198975,777.251526 
	C694.966553,778.005066 694.217102,779.548523 693.253540,780.741699 
	C694.604004,781.403076 695.901611,782.420410 697.319092,782.631042 
	C698.904724,782.866760 700.743591,781.885193 702.208313,782.320862 
	C703.922852,782.830872 706.330566,784.061340 706.657166,785.410339 
	C707.061279,787.079224 706.164612,789.704041 704.896851,791.010864 
	C701.697388,794.309204 697.169922,794.373230 694.857239,791.544495 
	C697.159912,791.126831 699.517761,791.085144 701.494385,790.195862 
	C702.678833,789.662903 703.267334,787.805176 704.123657,786.542908 
	C702.859619,786.020813 701.633667,785.238220 700.321289,785.046387 
	C698.875122,784.834900 697.349670,785.165955 695.422485,785.255188 
z"/>
<path fill="#E3E1DE" opacity="1.000000" stroke="none" 
	d="
M305.175293,637.246155 
	C302.744659,638.200989 300.668610,639.072693 298.592590,639.944397 
	C298.337982,639.362366 298.083374,638.780334 297.828766,638.198303 
	C303.313080,635.413269 308.797363,632.628174 314.281677,629.843140 
	C314.600189,630.333435 314.918701,630.823730 315.237213,631.314026 
	C313.156799,632.777649 311.076416,634.241272 308.663788,635.938660 
	C310.107269,638.867004 311.550446,641.794861 313.126465,644.992188 
	C315.756073,643.908875 318.076965,642.952759 320.800537,641.830750 
	C319.406219,645.704956 308.456055,651.468750 303.218811,650.900269 
	C306.136444,649.035889 308.367859,647.609985 311.214752,645.790771 
	C309.219604,642.762817 307.374756,639.962952 305.175293,637.246155 
z"/>
<path fill="#DDDDDC" opacity="1.000000" stroke="none" 
	d="
M280.200806,531.163025 
	C276.506165,533.123230 273.136475,534.911621 269.766785,536.699951 
	C274.308136,530.174255 276.277374,524.096191 267.353790,518.956848 
	C267.729736,518.584106 268.105652,518.211304 268.481567,517.838562 
	C274.347626,520.019043 280.234863,522.147766 286.022583,524.519348 
	C286.341522,524.650024 286.285919,527.284912 285.616791,527.907959 
	C284.195160,529.231445 282.253967,529.996948 280.200806,531.163025 
M282.285065,525.790466 
	C280.109406,524.915588 277.933746,524.040710 274.932556,522.833923 
	C275.397034,525.889893 275.696564,527.860596 276.109497,530.577393 
	C278.765533,528.867432 280.667084,527.643250 282.285065,525.790466 
z"/>
<path fill="#DCDBDC" opacity="1.000000" stroke="none" 
	d="
M291.033936,450.323486 
	C290.324493,453.391571 289.586670,456.055389 288.848877,458.719208 
	C288.209656,458.535187 287.570435,458.351135 286.931213,458.167114 
	C287.459869,456.293518 288.348450,454.429230 288.397339,452.543182 
	C288.433014,451.165222 287.363556,449.758667 286.786743,448.364868 
	C285.625031,449.061340 284.159729,449.517944 283.374573,450.511871 
	C282.265442,451.915833 281.970215,454.025299 280.747650,455.259003 
	C279.596893,456.420227 277.581909,457.587067 276.154755,457.372223 
	C274.700745,457.153320 272.698486,455.457642 272.338867,454.050201 
	C271.274017,449.882416 272.123566,445.988342 276.810608,443.650452 
	C276.166412,445.280121 275.114777,446.878143 274.985199,448.547760 
	C274.836609,450.462524 275.505768,452.440765 275.819641,454.391418 
	C277.296356,453.228363 278.910400,452.199768 280.214478,450.867676 
	C281.787933,449.260498 282.756287,446.624420 284.596283,445.808319 
	C288.087982,444.259674 290.157532,446.503479 291.033936,450.323486 
z"/>
<path fill="#D9D9DB" opacity="1.000000" stroke="none" 
	d="
M297.998779,595.476074 
	C304.064117,600.017090 305.281006,604.422485 301.530914,609.037048 
	C300.950958,604.118591 301.505005,598.467468 295.183746,597.730591 
	C293.089050,597.486389 290.040863,598.610352 288.679260,600.188171 
	C284.853088,604.621765 288.034210,608.596191 291.060150,612.471680 
	C286.537292,612.024292 283.672516,607.510864 284.427887,602.812439 
	C285.406830,596.722900 290.230988,593.977661 297.998779,595.476074 
z"/>
<path fill="#D9D9DB" opacity="1.000000" stroke="none" 
	d="
M492.637390,784.920288 
	C496.768677,786.172668 500.547119,787.364441 504.325562,788.556213 
	C504.208008,789.139893 504.090485,789.723633 503.972931,790.307373 
	C502.090149,790.022522 500.207397,789.737671 497.940308,789.394653 
	C496.349670,794.363220 494.735596,799.404968 493.121521,804.446716 
	C492.407104,804.268982 491.692688,804.091248 490.978302,803.913574 
	C492.235077,798.921143 493.491852,793.928711 494.821411,788.647095 
	C493.042206,787.756409 491.227905,786.848083 489.413605,785.939819 
	C489.461334,785.579773 489.509064,785.219666 489.556793,784.859619 
	C490.466034,784.859619 491.375244,784.859619 492.637390,784.920288 
z"/>
<path fill="#D9D9DB" opacity="1.000000" stroke="none" 
	d="
M733.282959,776.711548 
	C730.400879,772.347046 727.853394,768.110657 725.179443,763.663879 
	C723.143127,764.351013 721.264771,764.984802 719.386414,765.618652 
	C719.141418,765.107300 718.896362,764.595886 718.651367,764.084534 
	C723.000732,761.625793 727.350159,759.167114 731.699524,756.708374 
	C732.030640,757.195923 732.361694,757.683533 732.692810,758.171082 
	C731.163513,759.382263 729.634155,760.593445 727.798157,762.047424 
	C729.811646,765.675110 731.940369,769.197449 733.708008,772.892639 
	C734.214539,773.951599 733.676636,775.510193 733.282959,776.711548 
z"/>
<path fill="#D9D9DB" opacity="1.000000" stroke="none" 
	d="
M368.236755,707.758667 
	C370.509949,710.227356 372.533264,712.439270 374.556549,714.651184 
	C374.206818,715.051147 373.857086,715.451111 373.507355,715.851135 
	C371.927856,714.705383 370.348358,713.559631 368.508423,712.225037 
	C364.660767,715.791016 360.761902,719.404419 356.863068,723.017883 
	C356.346039,722.541931 355.829041,722.065918 355.312012,721.589966 
	C358.916199,717.720215 362.520386,713.850525 366.229279,709.868408 
	C365.032257,708.092896 363.936218,706.467163 362.840210,704.841431 
	C363.238159,704.479309 363.636108,704.117188 364.034027,703.755127 
	C365.351624,705.004028 366.669220,706.252930 368.236755,707.758667 
z"/>
<path fill="#5166A8" opacity="1.000000" stroke="none" 
	d="
M467.396362,609.503174 
	C467.347748,609.429810 467.538239,609.398987 467.538239,609.398987 
	C467.538239,609.398987 467.445007,609.576599 467.396362,609.503174 
z"/>
<path fill="#5468A9" opacity="1.000000" stroke="none" 
	d="
M634.487549,464.170197 
	C632.282593,453.208374 630.497986,442.547546 628.188293,432.001740 
	C624.696777,416.059937 622.832092,399.850250 619.872437,383.822632 
	C618.809265,378.065582 618.222351,372.177063 617.980286,366.325287 
	C617.777954,361.434418 621.434204,358.206635 627.299805,356.971191 
	C632.249817,355.928528 635.310669,358.040314 636.975342,362.561554 
	C637.606812,364.276611 638.286621,366.012726 638.601562,367.799683 
	C643.832642,397.478882 649.038025,427.162689 654.173767,456.858521 
	C655.213745,462.871857 653.592468,466.238220 649.235779,468.067535 
	C643.515137,470.469513 638.087646,469.148346 634.487549,464.170197 
z"/>
<path fill="#5468A9" opacity="1.000000" stroke="none" 
	d="
M469.885559,441.019775 
	C467.982849,429.787048 466.071350,418.975952 464.417358,408.125549 
	C463.556580,402.478638 462.744263,396.768768 462.656647,391.075806 
	C462.574890,385.765839 466.733673,382.336029 472.809814,381.455994 
	C478.058807,380.695801 480.804260,383.716064 481.821594,388.098145 
	C483.698578,396.183105 485.085419,404.385437 486.554352,412.560822 
	C490.643982,435.321777 494.699646,458.088928 498.707581,480.864410 
	C500.178009,489.220093 496.415588,493.740082 488.129242,493.818817 
	C482.339508,493.873840 479.517548,491.715668 478.400635,485.964447 
	C476.498993,476.172394 475.250885,466.220551 472.742523,456.592651 
	C471.427338,451.544525 470.372467,446.580566 469.885559,441.019775 
z"/>
<path fill="#5166A8" opacity="1.000000" stroke="none" 
	d="
M693.472717,561.681152 
	C693.414124,561.601868 693.624634,561.555908 693.624634,561.555908 
	C693.624634,561.555908 693.531311,561.760437 693.472717,561.681152 
z"/>
<path fill="#586CAB" opacity="1.000000" stroke="none" 
	d="
M781.940918,534.014587 
	C784.383972,542.354492 786.748840,550.295959 789.333557,558.975586 
	C783.858093,559.961609 778.894836,560.855347 773.054199,561.907104 
	C772.524719,541.855652 772.011902,522.437317 771.499146,503.018982 
	C772.114746,502.917999 772.730286,502.816986 773.345886,502.715973 
	C776.184875,513.015991 779.023865,523.316040 781.940918,534.014587 
z"/>
<path fill="#5468A9" opacity="1.000000" stroke="none" 
	d="
M795.801880,728.065247 
	C791.871582,729.838013 788.213318,729.594177 786.387268,726.085693 
	C785.297424,723.991638 785.130676,720.136353 786.390259,718.440430 
	C787.807556,716.532166 791.293091,715.408936 793.885071,715.397705 
	C795.518799,715.390625 797.786926,717.749817 798.665466,719.578430 
	C800.175842,722.722107 798.985840,725.688965 795.801880,728.065247 
z"/>
<path fill="#5468A9" opacity="1.000000" stroke="none" 
	d="
M395.471130,746.673096 
	C389.855072,749.247253 385.569916,747.982422 384.031677,743.639038 
	C382.632141,739.687317 384.872009,734.768860 388.916656,734.455078 
	C391.339905,734.267090 394.564575,735.372192 396.274109,737.063416 
	C399.092896,739.852234 398.403809,743.414734 395.471130,746.673096 
z"/>
<path fill="#586CAB" opacity="1.000000" stroke="none" 
	d="
M290.303345,566.744141 
	C288.588928,568.157532 285.803162,570.244202 285.549194,569.971680 
	C283.536316,567.811462 282.005188,565.202454 280.161072,562.488464 
	C289.350586,558.923157 289.447632,558.969482 290.303345,566.744141 
z"/>
<path fill="#586CAB" opacity="1.000000" stroke="none" 
	d="
M764.061646,745.660522 
	C762.328430,748.133606 760.622986,750.208313 758.488037,752.805481 
	C756.352051,749.968140 754.791931,747.895691 753.250305,745.847900 
	C759.283264,739.958801 761.627319,739.869934 764.061646,745.660522 
z"/>
<path fill="#586CAB" opacity="1.000000" stroke="none" 
	d="
M306.723511,385.106018 
	C301.044281,383.478699 300.692871,381.406494 304.771973,374.651001 
	C305.921234,375.072479 307.156647,375.457520 308.333252,375.976044 
	C309.522369,376.500092 310.653259,377.156342 312.816376,378.275543 
	C310.733307,380.746002 308.923248,382.892670 306.723511,385.106018 
z"/>
<path fill="#586CAB" opacity="1.000000" stroke="none" 
	d="
M607.001221,799.804504 
	C607.493591,799.528748 607.661743,799.413635 607.806519,799.437805 
	C610.430054,799.876831 613.124329,800.116394 615.611572,800.962769 
	C616.123474,801.137024 616.445312,804.429810 615.851257,804.843262 
	C613.507324,806.474426 610.763794,807.531372 607.158325,809.295654 
	C606.936829,805.125916 606.801514,802.577942 607.001221,799.804504 
z"/>
<path fill="#6577B0" opacity="1.000000" stroke="none" 
	d="
M282.426819,526.104736 
	C280.667084,527.643250 278.765533,528.867432 276.109497,530.577393 
	C275.696564,527.860596 275.397034,525.889893 274.932556,522.833923 
	C277.933746,524.040710 280.109406,524.915588 282.426819,526.104736 
z"/>
</svg>